<svg xmlns="http://www.w3.org/2000/svg" width="110" height="110" version="1.0" viewBox="0 0 110 110"><circle cx="55" cy="55" r="55" fill="#FABC3D"/><path fill="#3E3E3F" d="M83 76a5.997 5.997 0 0 0-3.043-2.982l-9.816-2.637c8.075-9.637 13.396-21.417-.192-35.231-5-5.083-15-7.15-15-7.15s-10 2.067-15 7.15c-13.474 13.699-8.13 25.534-.075 35.227l-9.832 2.641A5.998 5.998 0 0 0 27 76l-4 11h64l-4-11z"/><path fill="#E2E4E5" d="M65.949 41.25c-3-3.05-6-2.033-11-2.033s-8-1.017-11 2.033c-4.838 4.919-2.615 16.559 1.98 26.13C49.961 71.556 55 73 55 73s4.875-1.396 8.872-5.415c4.662-9.609 6.95-21.381 2.077-26.335z"/><path fill="#FFF" d="M43.949 41.25c-4.856 4.938-2.599 16.648 2.032 26.24 4.014 4.094 8.968 5.51 8.968 5.51V39.217c-5 0-8-1.017-11 2.033z"/><path fill="#3E3E3F" d="M54.949 72l-2-7h4zM65 57l-3 2-5-2h-4l-5 2-3-2h-1l2.1 2.8a3 3 0 002.4 1.2H53l2-2.667L57 61h4.5c.944 0 1.833-.445 2.4-1.2L66 57h-1zM53.949 51c-3-6-10 0-10 0h10zM55.949 51c3-6 10 0 10 0h-10zM44.949 43c2-1 9 3.139 9 3.139s-6-8.139-9-3.139zM64.949 43c-2-1-9 3.139-9 3.139s6-8.139 9-3.139z"/><path fill="#F7B4B4" d="M55 73s-4.959-1.418-8.975-5.517c2.538 5.258 5.788 9.88 8.975 12.4 3.187-2.52 6.438-7.142 8.975-12.401C59.959 71.582 55 73 55 73z"/><path fill="#FBC8C8" d="M46.025 67.483c2.538 5.258 5.788 9.88 8.975 12.4V73s-4.959-1.418-8.975-5.517z"/></svg>